<?xml version="1.0" standalone="no"?>
<!DOCTYPE svg PUBLIC "-//W3C//DTD SVG 20010904//EN"
 "http://www.w3.org/TR/2001/REC-SVG-20010904/DTD/svg10.dtd">
<svg version="1.0" xmlns="http://www.w3.org/2000/svg"
 width="1000.000000pt" height="1000.000000pt" viewBox="0 0 1000.000000 1000.000000"
 preserveAspectRatio="xMidYMid meet">
<metadata>
Created by potrace 1.14, written by Peter Selinger 2001-2017
</metadata>
<g transform="translate(0.000000,1000.000000) scale(0.100000,-0.100000)"
fill="#000000" stroke="none">
<path d="M1065 5346 l0 -1976 449 2 450 3 0 773 -1 772 506 1 c546 1 557 1
676 25 340 67 662 315 818 630 117 236 151 552 91 851 -70 346 -282 622 -570
743 -128 54 -341 105 -514 125 -30 4 -68 9 -85 12 -16 3 -433 7 -925 10 l-895
5 0 -1976z m1570 1422 c194 -23 337 -80 430 -173 136 -136 190 -387 140 -645
-19 -98 -86 -211 -170 -288 -91 -83 -177 -121 -337 -148 -18 -3 -191 -8 -384
-11 l-350 -5 -1 641 0 642 296 -2 c163 -1 332 -6 376 -11z"/>
<path d="M5165 6483 c-469 -55 -771 -287 -851 -654 -21 -98 -21 -291 0 -389
47 -219 190 -378 451 -499 55 -26 394 -160 465 -184 513 -175 577 -203 666
-292 86 -85 120 -180 117 -332 -4 -226 -139 -398 -376 -477 -102 -34 -153 -40
-317 -40 -170 0 -241 15 -370 76 -64 31 -102 58 -151 107 -109 109 -145 202
-148 389 l-1 32 -214 0 -215 0 5 -90 c13 -262 116 -480 284 -605 113 -83 274
-146 450 -176 145 -24 465 -33 630 -17 433 43 731 251 825 574 32 109 38 157
38 279 -1 197 -62 351 -193 486 -103 107 -254 199 -410 252 -25 9 -137 48
-250 87 -113 39 -239 83 -280 97 -41 13 -89 31 -107 39 -17 8 -36 14 -41 14
-25 0 -169 73 -229 116 -155 111 -214 210 -218 369 -7 254 133 432 395 501 46
13 106 18 205 18 162 1 223 -6 320 -39 187 -64 312 -199 330 -360 4 -33 9 -62
10 -65 3 -4 385 -5 421 -1 15 2 0 112 -32 219 -23 83 -58 144 -121 219 -72 85
-77 89 -148 143 -122 92 -289 161 -450 185 -22 4 -51 9 -65 12 -29 6 -380 11
-425 6z"/>
<path d="M8548 6437 c-12 -4 -28 -16 -35 -27 -7 -10 -77 -94 -156 -187 -78
-92 -214 -253 -301 -358 -88 -104 -162 -192 -165 -195 -3 -3 -51 -59 -106
-125 -55 -66 -102 -122 -105 -125 -3 -3 -28 -32 -55 -65 -28 -33 -52 -62 -55
-65 -3 -3 -51 -60 -108 -128 l-103 -122 68 -88 c37 -48 167 -213 288 -367 122
-154 272 -345 335 -425 63 -80 118 -149 122 -155 21 -25 58 -72 272 -344 l228
-290 255 -1 256 -1 -39 48 c-21 26 -41 50 -44 53 -3 3 -50 61 -105 130 -55 69
-105 130 -111 135 -6 6 -26 30 -45 55 -18 25 -36 47 -39 50 -3 3 -44 52 -90
110 -47 57 -93 114 -102 125 -9 11 -77 94 -150 185 -196 242 -367 452 -386
475 -58 69 -262 323 -262 327 0 3 10 16 23 30 12 13 54 60 92 103 39 43 88 99
111 124 50 56 269 303 310 350 16 19 34 39 40 45 11 12 76 85 179 200 39 44
75 84 80 90 6 6 82 92 170 191 88 99 172 194 187 210 15 17 24 31 20 32 -22 7
-457 7 -474 0z"/>
<path d="M6903 4905 l0 -1535 216 2 216 3 1 1533 1 1532 -217 0 -217 0 0
-1535z"/>
</g>
</svg>
